<?xml version="1.0" standalone="no"?>
<!DOCTYPE svg PUBLIC "-//W3C//DTD SVG 20010904//EN"
 "http://www.w3.org/TR/2001/REC-SVG-20010904/DTD/svg10.dtd">
<svg version="1.0" xmlns="http://www.w3.org/2000/svg"
 width="200.000000pt" height="141.000000pt" viewBox="0 0 200.000000 141.000000"
 preserveAspectRatio="xMidYMid meet">
<metadata>
Created by potrace 1.16, written by Peter Selinger 2001-2019
</metadata>
<g transform="translate(0.000000,141.000000) scale(0.100000,-0.100000)"
fill="#000000" stroke="none">
<path d="M488 1363 c-81 -87 -95 -233 -32 -325 34 -49 59 -56 91 -26 38 35 56
86 57 163 1 74 -18 128 -67 188 l-23 27 -26 -27z"/>
<path d="M128 1154 c-22 -7 -23 -24 -2 -72 44 -105 206 -188 298 -153 26 11
28 14 23 52 -7 51 -48 104 -111 143 -38 24 -59 30 -119 32 -39 2 -80 1 -89 -2z"/>
<path d="M728 1145 c-78 -29 -145 -102 -162 -177 -5 -24 -2 -28 30 -38 77 -26
184 10 249 82 43 48 76 120 61 135 -14 14 -141 13 -178 -2z"/>
<path d="M476 945 c-3 -9 -6 -159 -6 -333 0 -356 3 -371 70 -405 39 -20 98
-15 137 10 33 22 28 9 -13 -37 -69 -76 -182 -86 -238 -20 -46 55 -46 116 0
177 25 33 34 113 14 113 -23 0 -70 -32 -94 -62 -39 -53 -51 -107 -37 -175 16
-82 51 -130 118 -160 48 -22 65 -25 128 -21 89 6 172 43 213 94 15 19 103 92
196 162 l170 127 -130 3 -129 3 -88 -93 c-48 -51 -83 -83 -77 -71 16 34 12 95
-10 130 -19 32 -84 73 -115 73 -11 0 -15 -10 -15 -38 0 -31 6 -43 30 -60 39
-29 41 -69 4 -78 -15 -4 -30 -2 -37 5 -9 9 -13 108 -17 339 l-5 327 -31 3
c-22 2 -33 -2 -38 -13z"/>
<path d="M1205 884 c-16 -8 -33 -21 -37 -27 -5 -8 -8 -4 -8 11 0 21 -4 22 -69
22 -62 0 -70 -2 -85 -25 -21 -32 -20 -35 9 -35 23 0 24 -3 27 -72 l3 -73 33
-3 32 -3 0 75 c0 69 2 76 20 76 17 0 20 -7 20 -40 0 -49 21 -84 60 -100 121
-50 209 122 98 190 -40 24 -63 25 -103 4z"/>
<path d="M658 869 c-70 -36 -79 -107 -18 -146 19 -12 40 -27 47 -33 16 -13 61
-13 76 1 7 5 27 19 45 30 21 12 35 29 38 49 10 46 24 25 24 -36 l0 -55 33 3
c31 3 32 4 37 58 4 41 14 68 38 103 l33 47 -45 0 c-36 0 -46 -4 -51 -21 l-7
-21 -15 21 c-10 14 -25 21 -49 21 -36 0 -42 -8 -21 -29 10 -10 6 -10 -18 0
-16 7 -34 16 -39 21 -16 13 -69 7 -108 -13z"/>
<path d="M665 654 c-106 -55 -60 -215 58 -200 22 2 49 14 62 26 l23 22 4 -24
c2 -18 10 -24 35 -26 29 -3 32 -1 35 30 3 30 7 33 38 36 19 2 41 8 47 14 10 8
13 1 13 -31 l0 -41 105 0 105 0 0 75 c0 60 3 75 15 75 12 0 15 -15 15 -75 l0
-75 40 0 40 0 0 70 c0 63 2 70 20 70 18 0 20 -7 20 -70 l0 -70 40 0 40 0 0 70
c0 63 2 70 20 70 16 0 20 7 20 30 l0 30 -170 0 -170 0 0 -75 0 -75 -30 0 c-16
0 -30 5 -30 10 0 6 9 10 20 10 16 0 20 7 20 30 0 25 -4 30 -25 30 -14 0 -25 5
-25 10 0 6 14 10 30 10 25 0 30 4 30 25 0 24 -2 25 -65 25 -41 0 -65 -4 -65
-11 0 -8 -4 -8 -14 0 -14 12 -55 16 -118 13 -34 -2 -38 -5 -38 -29 -1 -25 -2
-26 -11 -10 -11 19 -66 47 -91 47 -7 0 -26 -7 -43 -16z"/>
<path d="M1550 565 l0 -105 35 0 c31 0 35 3 35 25 0 14 5 25 10 25 6 0 16 -11
22 -25 9 -19 19 -25 45 -25 23 0 33 5 33 16 0 23 -19 57 -43 76 l-21 16 27 41
c35 53 34 61 -6 61 -27 0 -37 -6 -47 -27 l-14 -28 -4 28 c-3 23 -8 27 -38 27
l-34 0 0 -105z"/>
<path d="M1740 560 l0 -110 35 0 c34 0 35 1 35 40 0 36 3 40 25 40 23 0 25 -4
25 -40 0 -39 1 -40 35 -40 l35 0 0 110 0 110 -35 0 c-33 0 -35 -2 -35 -35 0
-31 -3 -35 -25 -35 -22 0 -25 4 -25 35 0 33 -2 35 -35 35 l-35 0 0 -110z"/>
</g>
</svg>
